<svg width="512" height="512" viewBox="0 0 512 512" fill="none" xmlns="http://www.w3.org/2000/svg">
<rect width="512" height="512" rx="40" fill="url(#paint0_linear_0_1)"/>
<g filter="url(#filter0_d_0_1)">
<path d="M296.217 200.85C311.709 216.343 311.709 241.462 296.216 256.955C285.373 267.798 269.817 271.05 256.144 266.716C255.237 268.415 254.069 270.012 252.636 271.444L173.826 350.254L198.798 375.226C202.703 379.131 202.703 385.463 198.798 389.368L186.777 401.389C182.872 405.294 176.541 405.294 172.635 401.389L147.664 376.417L132.814 391.266L175.464 433.916C179.369 437.821 179.369 444.152 175.464 448.058L163.443 460.078C159.538 463.984 153.206 463.984 149.301 460.078L106.651 417.429L99.4442 424.636C91.6338 432.447 78.9705 432.446 71.16 424.636L66.1964 419.673C58.3859 411.862 58.3859 399.199 66.1964 391.388L219.389 238.196C220.821 236.764 222.417 235.594 224.115 234.688C219.782 221.015 223.034 205.458 233.877 194.616C249.37 179.123 274.49 179.123 289.983 194.616L296.217 200.85Z" fill="url(#new_key_gradient)"/>
<path d="M296.217 200.85L299.752 197.314L299.752 197.314L296.217 200.85ZM296.216 256.955L299.752 260.491L299.752 260.491L296.216 256.955ZM256.144 266.716L257.654 261.95L253.691 260.693L251.733 264.361L256.144 266.716ZM173.826 350.254L170.291 346.718L166.755 350.254L170.291 353.789L173.826 350.254ZM198.798 375.226L202.334 371.69L202.334 371.69L198.798 375.226ZM186.777 401.389L190.313 404.924V404.924L186.777 401.389ZM172.635 401.389L169.1 404.924L169.1 404.924L172.635 401.389ZM147.664 376.417L151.199 372.881L147.664 369.346L144.128 372.881L147.664 376.417ZM132.814 391.266L129.279 387.731L125.743 391.266L129.279 394.802L132.814 391.266ZM175.464 433.916L178.999 430.38L178.999 430.38L175.464 433.916ZM175.464 448.058L178.999 451.593V451.593L175.464 448.058ZM163.443 460.078L166.978 463.614V463.614L163.443 460.078ZM149.301 460.078L145.765 463.614L145.765 463.614L149.301 460.078ZM106.651 417.429L110.187 413.893L106.651 410.358L103.116 413.893L106.651 417.429ZM71.16 424.636L67.6244 428.172L67.6245 428.172L71.16 424.636ZM224.115 234.688L226.47 239.098L230.138 237.14L228.882 233.177L224.115 234.688ZM233.877 194.616L230.341 191.08L230.341 191.08L233.877 194.616ZM296.217 200.85L292.681 204.385C306.221 217.926 306.221 239.879 292.68 253.42L296.216 256.955L299.752 260.491C317.197 243.045 317.198 214.76 299.752 197.314L296.217 200.85ZM296.216 256.955L292.681 253.42C283.21 262.89 269.618 265.742 257.654 261.95L256.144 266.716L254.633 271.482C270.015 276.358 287.537 272.705 299.752 260.491L296.216 256.955ZM256.144 266.716L251.733 264.361C251.054 265.634 250.178 266.831 249.101 267.908L252.636 271.444L256.172 274.979C257.959 273.192 259.42 271.196 260.554 269.071L256.144 266.716ZM252.636 271.444L249.101 267.908L170.291 346.718L173.826 350.254L177.362 353.789L256.172 274.979L252.636 271.444ZM173.826 350.254L170.291 353.789L195.263 378.761L198.798 375.226L202.334 371.69L177.362 346.718L173.826 350.254ZM198.798 375.226L195.263 378.761C197.215 380.714 197.215 383.88 195.263 385.832L198.798 389.368L202.334 392.903C208.192 387.045 208.191 377.548 202.334 371.69L198.798 375.226ZM198.798 389.368L195.263 385.832L183.242 397.853L186.777 401.389L190.313 404.924L202.334 392.903L198.798 389.368ZM186.777 401.389L183.242 397.853C181.289 399.806 178.123 399.806 176.171 397.853L172.635 401.389L169.1 404.924C174.958 410.782 184.455 410.782 190.313 404.924L186.777 401.389ZM172.635 401.389L176.171 397.853L151.199 372.881L147.664 376.417L144.128 379.952L169.1 404.924L172.635 401.389ZM147.664 376.417L144.128 372.881L129.279 387.731L132.814 391.266L136.35 394.802L151.199 379.952L147.664 376.417ZM132.814 391.266L129.279 394.802L171.928 437.451L175.464 433.916L178.999 430.38L136.35 387.731L132.814 391.266ZM175.464 433.916L171.928 437.451C173.881 439.404 173.881 442.57 171.928 444.522L175.464 448.058L178.999 451.593C184.857 445.735 184.857 436.238 178.999 430.38L175.464 433.916ZM175.464 448.058L171.928 444.522L159.907 456.543L163.443 460.078L166.978 463.614L178.999 451.593L175.464 448.058ZM163.443 460.078L159.907 456.543C157.955 458.495 154.789 458.496 152.836 456.543L149.301 460.078L145.765 463.614C151.623 469.472 161.121 469.472 166.978 463.614L163.443 460.078ZM149.301 460.078L152.836 456.543L110.187 413.893L106.651 417.429L103.116 420.965L145.765 463.614L149.301 460.078ZM106.651 417.429L103.116 413.893L95.9087 421.101L99.4442 424.636L102.98 428.172L110.187 420.965L106.651 417.429ZM99.4442 424.636L95.9087 421.101C90.051 426.958 80.5534 426.958 74.6954 421.101L71.16 424.636L67.6245 428.172C77.3875 437.934 93.2167 437.935 102.98 428.172L99.4442 424.636ZM71.16 424.636L74.6955 421.101L69.7319 416.137L66.1964 419.673L62.6609 423.208L67.6244 428.172L71.16 424.636ZM66.1964 419.673L69.7319 416.137C63.8741 410.279 63.8741 400.782 69.7319 394.924L66.1964 391.388L62.6609 387.853C52.8977 397.616 52.8978 413.445 62.6609 423.208L66.1964 419.673ZM66.1964 391.388L69.7319 394.924L222.924 241.732L219.389 238.196L215.853 234.661L62.6609 387.853L66.1964 391.388ZM219.389 238.196L222.924 241.732C224.004 240.652 225.201 239.776 226.47 239.098L224.115 234.688L221.76 230.277C219.632 231.413 217.638 232.876 215.853 234.661L219.389 238.196ZM224.115 234.688L228.882 233.177C225.09 221.213 227.942 207.622 237.412 198.151L233.877 194.616L230.341 191.08C218.127 203.295 214.474 220.816 219.349 236.198L224.115 234.688ZM233.877 194.616L237.412 198.151C250.953 184.611 272.907 184.611 286.447 198.151L289.983 194.616L293.518 191.08C276.072 173.635 247.787 173.635 230.341 191.08L233.877 194.616ZM289.983 194.616L286.447 198.151L292.681 204.385L296.217 200.85L299.752 197.314L293.518 191.08L289.983 194.616Z" fill="url(#bright_key_outline_gradient)"/>
</g>
<path d="M401.154 89.6779C411.865 100.389 393.724 135.897 360.634 168.987C327.544 202.077 292.035 220.219 281.324 209.508C270.613 198.797 288.755 163.289 321.845 130.198C354.935 97.1083 390.443 78.9667 401.154 89.6779Z" fill="url(#newPetalPaint3)"/>
<path d="M401.154 89.6779C411.865 100.389 393.724 135.897 360.634 168.987C327.544 202.077 292.035 220.219 281.324 209.508C270.613 198.797 288.755 163.289 321.845 130.198C354.935 97.1083 390.443 78.9667 401.154 89.6779Z" fill="url(#newPetalPaint4)"/>
<path d="M280.929 224.421C290.195 239.24 329.913 231.115 369.642 206.274C409.371 181.432 434.067 149.281 424.801 134.462C415.535 119.643 375.816 127.768 336.087 152.609C296.358 177.451 271.663 209.602 280.929 224.421Z" fill="url(#newPetalPaint5)"/>
<path d="M265.211 209.795C250.392 200.529 258.517 160.81 283.359 121.081C308.2 81.3523 340.352 56.657 355.171 65.923C369.99 75.1889 361.865 114.907 337.023 154.636C312.182 194.366 280.03 219.061 265.211 209.795Z" fill="url(#newPetalPaint6)"/>
<path d="M275.929 215.613C277.256 233.04 317.021 244.221 364.747 240.587C412.472 236.952 450.085 219.879 448.758 202.452C447.431 185.025 407.666 173.844 359.941 177.478C312.215 181.112 274.602 198.186 275.929 215.613Z" fill="url(#newPetalPaint7)"/>
<path d="M275.332 214.891C257.905 213.564 246.724 173.799 250.358 126.074C253.992 78.3485 271.066 40.7351 288.493 42.0621C305.92 43.3892 317.101 83.1541 313.467 130.88C309.833 178.605 292.759 216.218 275.332 214.891Z" fill="url(#newPetalPaint8)"/>
<path d="M277.192 219.871C272.878 236.808 309.197 260.68 358.312 273.19C407.428 285.7 450.741 282.112 455.055 265.176C459.369 248.239 423.05 224.367 373.935 211.857C324.819 199.346 281.506 202.935 277.192 219.871Z" fill="url(#newPetalPaint9)"/>
<path d="M271.026 213.705C254.089 218.019 230.218 181.7 217.707 132.585C205.197 83.4696 208.785 40.1565 225.722 35.8425C242.659 31.5285 266.53 67.8472 279.041 116.963C291.551 166.078 287.963 209.391 271.026 213.705Z" fill="url(#newPetalPaint10)"/>
<path d="M267.028 226.546C257.223 240.925 283.402 275.853 325.501 304.559C367.599 333.264 409.675 344.878 419.48 330.499C429.285 316.12 403.106 281.192 361.007 252.487C318.909 223.781 276.832 212.167 267.028 226.546Z" fill="url(#newPetalPaint11)"/>
<path d="M264.319 223.835C249.94 233.639 215.013 207.459 186.308 165.361C157.602 123.262 145.987 81.1866 160.366 71.3823C174.744 61.578 209.671 87.7577 238.377 129.856C267.083 171.955 278.697 214.03 264.319 223.835Z" fill="url(#newPetalPaint12)"/>
<path d="M224.487 30.9976C230.772 29.3969 236.99 31.7557 242.414 35.772C247.878 39.8182 253.219 46.0141 258.219 53.6207C259.411 55.4344 260.591 57.3428 261.759 59.3384C264.861 53.2941 268.347 48.1729 272.168 44.3726C276.846 39.7208 282.524 36.5934 288.872 37.0767C295.22 37.5601 300.361 41.5113 304.28 46.8179C308.211 52.1402 311.34 59.3546 313.692 67.7183C314.331 69.9908 314.914 72.3688 315.447 74.8414C316.968 73.543 318.479 72.315 319.978 71.1636C326.752 65.9607 333.486 62.1226 339.766 60.2535C346.036 58.3873 352.46 58.3309 357.821 61.6832C363.183 65.0356 365.945 70.8361 367.013 77.2906C367.609 80.8937 367.715 84.8914 367.398 89.1734C367.471 89.1358 367.543 89.0974 367.616 89.0601C375.057 85.2588 382.104 82.6958 388.237 81.8804C394.278 81.0773 400.419 81.8715 404.69 86.1422C408.96 90.4129 409.754 96.5533 408.951 102.594C408.174 108.444 405.804 115.123 402.289 122.183C406.293 121.93 410.038 122.058 413.433 122.62C419.887 123.687 425.688 126.449 429.04 131.811C432.393 137.173 432.337 143.597 430.471 149.867C428.602 156.147 424.763 162.881 419.56 169.655C418.133 171.512 416.589 173.387 414.939 175.275C417.787 175.865 420.513 176.525 423.103 177.253C431.467 179.605 438.681 182.734 444.003 186.665C449.31 190.584 453.261 195.724 453.744 202.072C454.228 208.42 451.1 214.099 446.448 218.777C442.666 222.581 437.573 226.05 431.566 229.141C433.559 230.308 435.466 231.487 437.278 232.678C444.884 237.678 451.079 243.019 455.125 248.483C459.142 253.907 461.501 260.125 459.901 266.41C458.3 272.694 453.253 277.026 447.131 279.868C440.964 282.73 432.968 284.457 423.897 285.209C418.66 285.642 412.97 285.756 406.925 285.55C409.4 288.364 411.667 291.143 413.708 293.867C419.188 301.178 423.222 308.321 425.188 314.836C427.137 321.298 427.266 327.956 423.611 333.316C419.957 338.676 413.711 340.988 406.984 341.533C400.2 342.083 392.078 340.937 383.271 338.505C365.605 333.629 344.062 323.267 322.684 308.69C301.305 294.113 283.791 277.843 272.8 263.178C267.32 255.867 263.286 248.725 261.32 242.21C260.147 238.32 259.634 234.359 260.208 230.653C256.504 231.226 252.545 230.715 248.656 229.542C242.141 227.576 234.998 223.542 227.687 218.062C213.023 207.071 196.754 189.555 182.177 168.177C167.6 146.799 157.237 125.257 152.361 107.591C149.929 98.7839 148.784 90.6616 149.333 83.8785C149.878 77.1511 152.189 70.9061 157.549 67.2515C162.909 63.5969 169.567 63.7257 176.028 65.6754C182.544 67.6412 189.686 71.6748 196.997 77.1548C199.731 79.2043 202.521 81.4806 205.346 83.9664C205.14 77.924 205.255 72.2353 205.689 67.0005C206.44 57.9291 208.167 49.9333 211.029 43.7662C213.871 37.6445 218.203 32.5985 224.487 30.9976Z" stroke="url(#new_stroke_gradient)" stroke-width="10"/>
<circle cx="282.71" cy="208.123" r="39.1827" transform="rotate(45 282.71 208.123)" fill="url(#paint14_linear_0_1)"/>
<defs>
<filter id="filter0_d_0_1" x="51.3385" y="177.996" width="265.497" height="304.011" filterUnits="userSpaceOnUse" color-interpolation-filters="sRGB">
<feFlood flood-opacity="0" result="BackgroundImageFix"/>
<feColorMatrix in="SourceAlpha" type="matrix" values="0 0 0 0 0 0 0 0 0 0 0 0 0 0 0 0 0 0 127 0" result="hardAlpha"/>
<feOffset dy="10"/>
<feGaussianBlur stdDeviation="2"/>
<feComposite in2="hardAlpha" operator="out"/>
<feColorMatrix type="matrix" values="0 0 0 0 0 0 0 0 0 0 0 0 0 0 0 0 0 0 0.25 0"/>
<feBlend mode="normal" in2="BackgroundImageFix" result="effect1_dropShadow_0_1"/>
<feBlend mode="normal" in="SourceGraphic" in2="effect1_dropShadow_0_1" result="shape"/>
</filter>
<linearGradient id="paint0_linear_0_1" x1="256" y1="0" x2="256" y2="512" gradientUnits="userSpaceOnUse">
<stop stop-color="#0B0F19"/>
<stop offset="1" stop-color="#141B2D"/>
</linearGradient>
<linearGradient id="new_key_gradient" x1="310.687" y1="215.32" x2="86.2654" y2="439.742" gradientUnits="userSpaceOnUse">
<stop stop-color="#10B981"/>
<stop offset="1" stop-color="#064E3B"/>
</linearGradient>
<linearGradient id="bright_key_outline_gradient" x1="310.687" y1="215.32" x2="86.2654" y2="439.742" gradientUnits="userSpaceOnUse">
<stop stop-color="#E0FFF7"/>
<stop offset="1" stop-color="#7EEBCA"/>
</linearGradient>
<linearGradient id="new_stroke_gradient" x1="464" y1="30.5" x2="252.765" y2="238.099" gradientUnits="userSpaceOnUse">
<stop stop-color="#FDE2E4"/>
<stop offset="1" stop-color="#FB7185"/>
</linearGradient>
<linearGradient id="newPetalPaint3" x1="354.053" y1="128.467" x2="298.641" y2="182.494" gradientUnits="userSpaceOnUse">
<stop stop-color="#FF4D79"/>
<stop offset="1" stop-color="#5C061B"/>
</linearGradient>
<linearGradient id="newPetalPaint4" x1="354.053" y1="128.467" x2="298.641" y2="182.494" gradientUnits="userSpaceOnUse">
<stop stop-color="#FF5E8E"/>
<stop offset="1" stop-color="#690822"/>
</linearGradient>
<linearGradient id="newPetalPaint5" x1="384.184" y1="155.134" x2="301.758" y2="209.162" gradientUnits="userSpaceOnUse">
<stop stop-color="#FF3D6F"/>
<stop offset="1" stop-color="#4C0313"/>
</linearGradient>
<linearGradient id="newPetalPaint6" x1="335.352" y1="91.7559" x2="268.164" y2="179.724" gradientUnits="userSpaceOnUse">
<stop stop-color="#FF5280"/>
<stop offset="1" stop-color="#5F051C"/>
</linearGradient>
<linearGradient id="newPetalPaint7" x1="406.003" y1="197.733" x2="321.845" y2="233.405" gradientUnits="userSpaceOnUse">
<stop stop-color="#FF3B6B"/>
<stop offset="1" stop-color="#480211"/>
</linearGradient>
<linearGradient id="newPetalPaint8" x1="286.173" y1="77.9027" x2="245.999" y2="152.71" gradientUnits="userSpaceOnUse">
<stop stop-color="#FF6492"/>
<stop offset="1" stop-color="#6D0924"/>
</linearGradient>
<linearGradient id="newPetalPaint9" x1="373.935" y1="211.857" x2="330.503" y2="260.765" gradientUnits="userSpaceOnUse">
<stop stop-color="#FF3869"/>
<stop offset="1" stop-color="#450210"/>
</linearGradient>
<linearGradient id="newPetalPaint10" x1="273.359" y1="99.7215" x2="235.955" y2="161.368" gradientUnits="userSpaceOnUse">
<stop stop-color="#FF6B97"/>
<stop offset="1" stop-color="#750B27"/>
</linearGradient>
<linearGradient id="newPetalPaint11" x1="311.109" y1="179.724" x2="262.969" y2="227.863" gradientUnits="userSpaceOnUse">
<stop stop-color="#FF3566"/>
<stop offset="1" stop-color="#41010F"/>
</linearGradient>
<linearGradient id="newPetalPaint12" x1="311.109" y1="179.724" x2="262.969" y2="227.863" gradientUnits="userSpaceOnUse">
<stop stop-color="#FF4D79"/>
<stop offset="1" stop-color="#5C061B"/>
</linearGradient>
<linearGradient id="paint14_linear_0_1" x1="282.709" y1="168.94" x2="282.709" y2="247.305" gradientUnits="userSpaceOnUse">
<stop stop-color="#FFFBEB"/>
<stop offset="1" stop-color="#D97706"/>
</linearGradient>
</defs>
</svg>
